<?xml version="1.0" encoding="UTF-8" standalone="no"?>
<!-- Created with Inkscape (http://www.inkscape.org/) -->

<svg
   xmlns:dc="http://purl.org/dc/elements/1.1/"
   xmlns:cc="http://creativecommons.org/ns#"
   xmlns:rdf="http://www.w3.org/1999/02/22-rdf-syntax-ns#"
   xmlns:svg="http://www.w3.org/2000/svg"
   xmlns="http://www.w3.org/2000/svg"
   xmlns:sodipodi="http://sodipodi.sourceforge.net/DTD/sodipodi-0.dtd"
   xmlns:inkscape="http://www.inkscape.org/namespaces/inkscape"
   id="svg2"
   version="1.1"
   inkscape:version="0.48.4 r9939"
   width="105"
   height="142"
   sodipodi:docname="logo-color.svg">
  <metadata
     id="metadata8">
    <rdf:RDF>
      <cc:Work
         rdf:about="">
        <dc:format>image/svg+xml</dc:format>
        <dc:type
           rdf:resource="http://purl.org/dc/dcmitype/StillImage" />
        <dc:title />
      </cc:Work>
    </rdf:RDF>
  </metadata>
  <defs
     id="defs6" />
  <sodipodi:namedview
     pagecolor="#ffffff"
     bordercolor="#666666"
     borderopacity="1"
     objecttolerance="10"
     gridtolerance="10"
     guidetolerance="10"
     inkscape:pageopacity="0"
     inkscape:pageshadow="2"
     inkscape:window-width="1415"
     inkscape:window-height="724"
     id="namedview4"
     showgrid="false"
     inkscape:snap-bbox="true"
     inkscape:snap-bbox-edge-midpoints="true"
     inkscape:zoom="3.1"
     inkscape:cx="79.315126"
     inkscape:cy="77.042854"
     inkscape:window-x="185"
     inkscape:window-y="168"
     inkscape:window-maximized="0"
     inkscape:current-layer="svg2" />
  <path
     style="fill:#00142d;fill-opacity:1;stroke:none"
     d="m -0.40135,0.21254 105.17444,0 0,142.36001 -50.71329,-23.40426 -54.46115,23.40426 z"
     id="rect2987"
     inkscape:connector-curvature="0"
     sodipodi:nodetypes="cccccc" />
  <g
     transform="scale(0.96312047,1.0382917)"
     style="font-size:65.64888763px;font-style:normal;font-variant:normal;font-weight:normal;font-stretch:normal;text-align:start;line-height:125%;letter-spacing:0px;word-spacing:0px;writing-mode:lr-tb;text-anchor:start;fill:#ffffff;fill-opacity:1;stroke:none;font-family:Bodoni MT;-inkscape-font-specification:Bodoni MT"
     id="text3865">
    <path
       d="m 50.870323,84.650198 0,19.168962 5.192929,0 0,1.82714 -15.739064,0 0,-1.82714 4.327441,0 0,-38.530255 -4.744158,0 0,-1.634811 3.622229,0 c 2.649882,2.5e-5 5.096754,-0.138881 7.340623,-0.416717 l 0,5.064709 0.12822,0 c 1.773702,-3.632889 4.50907,-5.449344 8.206111,-5.44937 3.034527,2.6e-5 5.6951,1.260859 7.981725,3.782504 2.307938,2.500319 3.461921,5.481442 3.461953,8.943379 -3.2e-5,3.697033 -1.260866,6.902542 -3.782504,9.616536 -2.500326,2.692631 -5.289118,4.038945 -8.366387,4.038945 -3.226899,0 -5.727196,-1.52796 -7.500898,-4.583882 l -0.12822,0 M 63.50004,76.315866 c -2.5e-5,-3.996188 -0.11756,-6.667446 -0.352606,-8.01378 -0.213726,-1.367663 -0.726607,-2.372056 -1.538646,-3.013181 -0.790715,-0.662449 -1.677573,-0.993684 -2.660575,-0.993709 -2.094286,2.5e-5 -3.771836,0.694551 -5.032654,2.083583 -1.260849,1.389076 -2.083596,2.746075 -2.468244,4.071 -0.384674,1.324962 -0.577005,3.280323 -0.576992,5.866087 -1.3e-5,2.71401 0.181632,4.786906 0.544937,6.218694 0.363277,1.4318 1.228765,2.671264 2.596465,3.718394 1.389038,1.025765 2.927682,1.538647 4.615937,1.538646 1.752324,10e-7 3.002473,-0.737266 3.750449,-2.211804 0.747928,-1.495901 1.121904,-4.583874 1.121929,-9.26393"
       style=""
       id="path3734" />
  </g>
  <g
     transform="scale(0.94711831,1.0558343)"
     style="font-size:57.14985657px;font-style:normal;font-variant:normal;font-weight:normal;font-stretch:normal;text-align:start;line-height:125%;letter-spacing:0px;word-spacing:0px;writing-mode:lr-tb;text-anchor:start;fill:#ffffff;fill-opacity:1;stroke:none;font-family:Bodoni MT;-inkscape-font-specification:Bodoni MT"
     id="text3869">
    <path
       d="m 96.76688,80.697237 1.199924,0 c -0.558127,2.697508 -1.65573,4.75319 -3.292814,6.16705 -1.637124,1.413864 -3.609089,2.120795 -5.915904,2.120796 -3.143996,-10e-7 -5.80429,-1.162717 -7.980888,-3.488151 -2.176609,-2.344032 -3.264911,-5.03223 -3.264908,-8.064603 -3e-6,-3.125369 1.116204,-5.869378 3.348624,-8.232035 2.232408,-2.36262 5.004322,-3.543939 8.315751,-3.543961 2.362624,2.2e-5 4.288081,0.604635 5.776377,1.813838 1.488256,1.190642 2.232394,2.53009 2.232416,4.018349 -2.2e-5,0.744155 -0.26047,1.413879 -0.781346,2.009175 -0.502314,0.595325 -1.162737,0.89298 -1.981269,0.892966 -0.799968,1.4e-5 -1.469692,-0.251132 -2.009175,-0.75344 -0.520914,-0.502279 -0.781362,-1.162701 -0.781346,-1.98127 -1.6e-5,-0.57669 0.223225,-1.144095 0.669725,-1.702217 0.465069,-0.558085 0.697613,-0.939456 0.69763,-1.144113 -1.7e-5,-0.502274 -0.344181,-0.939455 -1.032492,-1.311545 -0.688345,-0.390652 -1.58131,-0.585988 -2.6789,-0.586009 -1.934773,2.1e-5 -3.37654,0.520918 -4.325306,1.562691 -0.930183,1.041813 -1.395269,3.246322 -1.39526,6.613533 -9e-6,3.367238 0.08371,5.860101 0.251146,7.478595 0.186026,1.599902 0.660414,2.864937 1.423166,3.795108 0.762731,0.911571 2.018464,1.367355 3.767202,1.367355 3.68347,0 6.269349,-2.344035 7.757647,-7.032112"
       style=""
       id="path3731" />
  </g>
  <g
     transform="scale(0.93622903,1.0681147)"
     style="font-size:56.03681946px;font-style:normal;font-variant:normal;font-weight:normal;font-stretch:normal;text-align:start;line-height:125%;letter-spacing:0px;word-spacing:0px;writing-mode:lr-tb;text-anchor:start;fill:#ffffff;fill-opacity:1;stroke:none;font-family:Bodoni MT;-inkscape-font-specification:Bodoni MT"
     id="text3873">
    <path
       d="m 14.311794,76.546724 c -3e-6,-3.155705 1.085345,-5.837152 3.256046,-8.044348 2.170689,-2.2254 4.861256,-3.338109 8.071709,-3.338131 3.137462,2.2e-5 5.791547,1.067129 7.962263,3.201322 2.188915,2.115991 3.283383,4.770076 3.283408,7.962263 -2.5e-5,3.265174 -1.130976,6.037826 -3.392855,8.317966 -2.261922,2.261903 -4.934248,3.392853 -8.016986,3.392854 -3.028042,-10e-7 -5.645645,-1.103589 -7.852816,-3.310769 -2.207183,-2.225416 -3.310772,-4.952466 -3.310769,-8.181157 m 16.417037,0 c -1.9e-5,-3.356358 -0.118586,-5.572656 -0.355703,-6.6489 -0.218912,-1.076209 -0.729663,-1.924422 -1.532256,-2.544641 -0.784386,-0.638419 -1.869734,-0.957639 -3.256046,-0.95766 -1.313375,2.1e-5 -2.398723,0.328361 -3.256046,0.985022 -0.839102,0.63846 -1.358975,1.495793 -1.559618,2.572002 -0.200662,1.076245 -0.300988,3.292543 -0.300979,6.6489 -9e-6,3.374621 0.118559,5.60916 0.355702,6.703624 0.255367,1.094472 0.793481,1.951805 1.614342,2.572002 0.839082,0.6202 1.887947,0.9303 3.146599,0.930299 1.276866,10e-7 2.334851,-0.310099 3.17396,-0.930299 0.857317,-0.638438 1.39543,-1.514012 1.614342,-2.626726 0.237117,-1.130946 0.355684,-3.365485 0.355703,-6.703623"
       style=""
       id="path3737" />
  </g>
  <rect
     style="fill:#006732;fill-opacity:1;stroke:none"
     id="rect3877"
     width="80.715706"
     height="2.1868787"
     x="12.32605"
     y="57.109344" />
  <rect
     style="fill:#006732;fill-opacity:1;stroke:none"
     id="rect3879"
     width="23.264868"
     height="1.7892644"
     x="11.924011"
     y="101.04572" />
  <rect
     style="fill:#006732;fill-opacity:1;stroke:none"
     id="rect3881"
     width="29.821074"
     height="1.5227116"
     x="60.039757"
     y="101.24453" />
  <rect
     style="fill:#006732;fill-opacity:1;stroke:none"
     id="rect3883"
     width="105.174"
     height="27.037773"
     x="-0.40135193"
     y="0.25050354" />
</svg>
